<?xml version="1.0" encoding="utf-8"?>
<!-- Uploaded to: SVG Repo, www.svgrepo.com, Generator: SVG Repo Mixer Tools -->
<svg fill="#aaa" width="800px" height="800px" viewBox="-3 0 32 32" version="1.1" xmlns="http://www.w3.org/2000/svg">
<title>cloud</title>
<path d="M21.24 24.6h-15.76c-3.040 0-5.48-2.48-5.48-5.48 0-2.76 2.040-5.040 4.68-5.44 0.4-3.52 3.4-6.28 7-6.28 2.28 0 4.4 1.12 5.72 2.92 0.16 0 0.32-0.040 0.48-0.040 2.28 0 4.12 1.84 4.12 4.12 0 0.12 0 0.24 0 0.32 2.36 0.36 4.16 2.4 4.16 4.84 0 2.8-2.2 5.040-4.92 5.040zM11.68 9.080c-2.96 0-5.36 2.4-5.36 5.36 0 0.48-0.36 0.84-0.84 0.84-2.080 0-3.8 1.72-3.8 3.8s1.72 3.8 3.8 3.8h15.76c1.8 0 3.24-1.44 3.24-3.24s-1.44-3.24-3.24-3.24c-0.040 0-0.12 0-0.16 0-0.080 0-0.16 0-0.24 0-0.4-0.080-0.68-0.4-0.68-0.84 0-0.080 0-0.2 0.040-0.28v0 0c0.080-0.28 0.16-0.56 0.16-0.84 0-1.36-1.12-2.44-2.48-2.44-0.2 0-0.4 0.040-0.6 0.080v0c-0.36 0.12-0.8-0.040-1-0.36-0.96-1.64-2.72-2.64-4.6-2.64z"></path>
</svg>
