<?xml version="1.0" encoding="iso-8859-1"?>
<!-- Uploaded to: SVG Repo, www.svgrepo.com, Generator: SVG Repo Mixer Tools -->
<svg fill="#ffffff" height="800px" width="800px" version="1.1" id="Layer_1" xmlns="http://www.w3.org/2000/svg" xmlns:xlink="http://www.w3.org/1999/xlink" 
	 viewBox="0 0 512 512" xml:space="preserve">
<g>
	<g>
		<path d="M508.388,376.602c-4.153-3.386-10.286-2.757-13.695,1.371c-1.429,1.71-35.696,41.401-114.487-2.367
			c-91.896-51.067-153.84-11.072-156.431-9.343c-4.467,2.976-5.667,8.991-2.714,13.472c2.972,4.486,9.01,5.724,13.496,2.781
			c2.219-1.443,55.143-34.881,136.183,10.138c31.01,17.229,56.506,23.058,76.83,23.058c41.21,0,61.096-23.981,62.306-25.491
			C513.217,386.045,512.541,379.983,508.388,376.602z"/>
	</g>
</g>
<g>
	<g>
		<path d="M508.388,435.117c-4.153-3.381-10.286-2.757-13.695,1.371c-1.429,1.71-35.696,41.401-114.487-2.367
			c-91.896-51.058-153.84-11.072-156.431-9.343c-4.467,2.976-5.667,8.991-2.714,13.472c2.972,4.491,9.01,5.714,13.496,2.781
			c2.219-1.448,55.143-34.877,136.183,10.138c31.01,17.229,56.506,23.058,76.83,23.058c41.21,0,61.096-23.981,62.306-25.491
			C513.217,444.56,512.541,438.498,508.388,435.117z"/>
	</g>
</g>
<g>
	<g>
		<path d="M248.689,115.793c-91.42,0-165.793,74.372-165.793,165.793c0,62.358,34.458,118.854,89.925,147.45
			c1.429,0.738,2.953,1.086,4.457,1.086c3.533,0,6.943-1.924,8.676-5.286c2.467-4.786,0.591-10.667-4.2-13.134
			c-48.943-25.238-79.354-75.091-79.354-130.116c0-80.663,65.62-146.288,146.288-146.288c80.668,0,146.288,65.625,146.288,146.288
			c0,11.238-1.276,22.405-3.781,33.196c-1.229,5.243,2.038,10.486,7.286,11.71c5.219,1.195,10.486-2.043,11.705-7.291
			c2.848-12.238,4.295-24.891,4.295-37.615C414.482,190.166,340.109,115.793,248.689,115.793z"/>
	</g>
</g>
<g>
	<g>
		<path d="M487.626,276.582h-39.01c-5.391,0-9.753,4.367-9.753,9.753s4.362,9.753,9.753,9.753h39.01
			c5.391,0,9.753-4.367,9.753-9.753S493.016,276.582,487.626,276.582z"/>
	</g>
</g>
<g>
	<g>
		<path d="M424.539,110.612c-3.81-3.81-9.981-3.81-13.791,0l-27.581,27.586c-3.81,3.81-3.81,9.986,0,13.791
			c1.905,1.905,4.4,2.857,6.895,2.857c2.495,0,4.991-0.952,6.895-2.857l27.581-27.586
			C428.349,120.593,428.349,114.417,424.539,110.612z"/>
	</g>
</g>
<g>
	<g>
		<path d="M249.82,37.773c-5.39,0-9.753,4.367-9.753,9.753v39.01c0,5.386,4.362,9.753,9.753,9.753s9.753-4.367,9.753-9.753v-39.01
			C259.573,42.14,255.211,37.773,249.82,37.773z"/>
	</g>
</g>
<g>
	<g>
		<path d="M114.211,138.198L86.63,110.612c-3.81-3.81-9.981-3.81-13.791,0c-3.81,3.805-3.81,9.981,0,13.791l27.581,27.586
			c1.905,1.905,4.4,2.857,6.896,2.857c2.495,0,4.99-0.952,6.895-2.857C118.021,148.184,118.021,142.008,114.211,138.198z"/>
	</g>
</g>
<g>
	<g>
		<path d="M114.211,420.935c-3.81-3.81-9.981-3.81-13.791,0l-27.581,27.586c-3.81,3.81-3.81,9.986,0,13.791
			c1.905,1.905,4.4,2.857,6.896,2.857c2.495,0,4.99-0.952,6.895-2.857l27.581-27.586
			C118.021,430.917,118.021,424.74,114.211,420.935z"/>
	</g>
</g>
<g>
	<g>
		<path d="M48.763,276.582H9.753c-5.39,0-9.753,4.367-9.753,9.753s4.362,9.753,9.753,9.753h39.01c5.391,0,9.753-4.367,9.753-9.753
			S54.153,276.582,48.763,276.582z"/>
	</g>
</g>
</svg>
