<?xml version="1.0" ?>

<!-- Uploaded to: SVG Repo, www.svgrepo.com, Generator: SVG Repo Mixer Tools -->
<svg fill="#ffffff" width="800px" height="800px" viewBox="0 0 64 64" version="1.1" xml:space="preserve" xmlns="http://www.w3.org/2000/svg" xmlns:xlink="http://www.w3.org/1999/xlink">

<g id="cloudy_sunny">

<g>

<path d="M38,12c-9.6,0-17.5,7.6-18,17.1c-2.2,1.5-3.9,3.6-4.8,6.2c-0.5-0.1-0.9-0.1-1.4-0.1C7.9,35.2,3,40.1,3,46.1    S7.9,57,13.9,57h27.9c5.1,0,9.2-4.1,9.2-9.2c0-1.6-0.4-3-1.1-4.3C53.8,40.1,56,35.2,56,30C56,20.1,47.9,12,38,12z M41.8,55H13.9    C9,55,5,51,5,46.1s4-8.9,8.9-8.9c0.6,0,1.2,0.1,1.9,0.2c0.5,0.1,1-0.2,1.2-0.7C18.1,32.2,22.3,29,27,29c5.8,0,10.5,4.7,10.5,10.5    c0,0.6,0.4,1,1,1h3.3c4,0,7.2,3.2,7.2,7.2S45.8,55,41.8,55z M48.8,41.8c-1.7-2-4.2-3.2-7-3.2h-2.3C39,32.1,33.6,27,27,27    c-1.7,0-3.4,0.4-4.9,1c1-7.9,7.8-14,15.9-14c8.8,0,16,7.2,16,16C54,34.5,52.1,38.8,48.8,41.8z"/>

<path d="M38,10c0.6,0,1-0.4,1-1V8c0-0.6-0.4-1-1-1s-1,0.4-1,1v1C37,9.6,37.4,10,38,10z"/>

<path d="M60,29h-1c-0.6,0-1,0.4-1,1s0.4,1,1,1h1c0.6,0,1-0.4,1-1S60.6,29,60,29z"/>

<path d="M16,31h1c0.6,0,1-0.4,1-1s-0.4-1-1-1h-1c-0.6,0-1,0.4-1,1S15.4,31,16,31z"/>

<path d="M53,16c0.3,0,0.5-0.1,0.7-0.3l0.6-0.6c0.4-0.4,0.4-1,0-1.4s-1-0.4-1.4,0l-0.6,0.6c-0.4,0.4-0.4,1,0,1.4    C52.5,15.9,52.7,16,53,16z"/>

<path d="M53.7,44.3c-0.4-0.4-1-0.4-1.4,0s-0.4,1,0,1.4l0.6,0.6c0.2,0.2,0.5,0.3,0.7,0.3s0.5-0.1,0.7-0.3c0.4-0.4,0.4-1,0-1.4    L53.7,44.3z"/>

<path d="M22.3,15.7c0.2,0.2,0.5,0.3,0.7,0.3s0.5-0.1,0.7-0.3c0.4-0.4,0.4-1,0-1.4l-0.6-0.6c-0.4-0.4-1-0.4-1.4,0s-0.4,1,0,1.4    L22.3,15.7z"/>

</g>

</g>

<g id="bright"/>

<g id="cloudy"/>

<g id="high_rainfall"/>

<g id="windy"/>

<g id="rain_with_thunder"/>

<g id="clear_night"/>

<g id="cloudy_night"/>

<g id="moon"/>

<g id="sun"/>

<g id="rainy_night"/>

<g id="windy_night"/>

<g id="night_rain_thunder"/>

<g id="windy_rain"/>

<g id="temperature"/>

<g id="humidity"/>

<g id="air_pressure"/>

<g id="low_rainfall"/>

<g id="moderate_rainfall"/>

<g id="Sunset"/>

</svg>
